<?xml version="1.0" encoding="UTF-8" standalone="no"?>
<!-- Created with Inkscape (http://www.inkscape.org/) -->

<svg
   xmlns:dc="http://purl.org/dc/elements/1.1/"
   xmlns:cc="http://creativecommons.org/ns#"
   xmlns:rdf="http://www.w3.org/1999/02/22-rdf-syntax-ns#"
   xmlns:svg="http://www.w3.org/2000/svg"
   xmlns="http://www.w3.org/2000/svg"
   xmlns:sodipodi="http://sodipodi.sourceforge.net/DTD/sodipodi-0.dtd"
   xmlns:inkscape="http://www.inkscape.org/namespaces/inkscape"
   width="162mm"
   height="162mm"
   viewBox="0 0 162 162"
   version="1.1"
   id="svg8"
   sodipodi:docname="logo-centered.svg"
   inkscape:version="0.92.5 (2060ec1f9f, 2020-04-08)"
   inkscape:export-filename="/home/user/Downloads/tacybot/client/src/assets/logo.png"
   inkscape:export-xdpi="5.0981669"
   inkscape:export-ydpi="5.0981669">
  <defs
     id="defs2" />
  <sodipodi:namedview
     id="base"
     pagecolor="#ffffff"
     bordercolor="#666666"
     borderopacity="1.0"
     inkscape:pageopacity="0.0"
     inkscape:pageshadow="2"
     inkscape:zoom="0.98994949"
     inkscape:cx="9.442007"
     inkscape:cy="216.97617"
     inkscape:document-units="mm"
     inkscape:current-layer="layer1"
     showgrid="false"
     inkscape:snap-bbox="false"
     fit-margin-top="0"
     fit-margin-left="0"
     fit-margin-right="0"
     fit-margin-bottom="0"
     inkscape:window-width="1920"
     inkscape:window-height="1174"
     inkscape:window-x="0"
     inkscape:window-y="0"
     inkscape:window-maximized="1" />
  <metadata
     id="metadata5">
    <rdf:RDF>
      <cc:Work
         rdf:about="">
        <dc:format>image/svg+xml</dc:format>
        <dc:type
           rdf:resource="http://purl.org/dc/dcmitype/StillImage" />
        <dc:title></dc:title>
      </cc:Work>
    </rdf:RDF>
  </metadata>
  <g
     inkscape:label="Layer 1"
     inkscape:groupmode="layer"
     id="layer1"
     transform="translate(-25.063919,17.016953)">
    <g
       id="g818"
       transform="translate(0.35882562,-38.651449)">
      <ellipse
         ry="22.712763"
         rx="79.641174"
         cy="121.27029"
         cx="105.70509"
         id="path821"
         style="fill:#ffd42a;fill-opacity:1;stroke:#000000;stroke-width:2;stroke-miterlimit:4;stroke-dasharray:none;stroke-opacity:1" />
      <path
         sodipodi:nodetypes="cccccccc"
         inkscape:connector-curvature="0"
         id="rect825"
         d="m 62.444366,104.21566 -2.525218,18.87474 c 37.547948,8.88742 46.927202,10.77986 88.631942,0.13363 l -4.04871,-18.31173 c -28.35501,13.75883 -54.749437,7.95493 -82.058014,-0.69664 3.078213,-13.497066 -0.835662,-35.49565 8.006217,-41.058161 26.662019,-3.822067 43.773317,-0.886065 65.004297,0.834233 6.89009,5.121744 6.03167,27.280379 9.0475,40.920568"
         style="fill:#ffd42a;fill-opacity:1;stroke:#000000;stroke-width:2;stroke-miterlimit:4;stroke-dasharray:none;stroke-opacity:1" />
      <path
         transform="scale(0.26458333)"
         inkscape:connector-curvature="0"
         id="path4574"
         d="m 378.32106,491.37438 c -27.90521,-1.37143 -56.52477,-5.90974 -103.2881,-16.37879 -21.20655,-4.74758 -46.44896,-10.66438 -46.74054,-10.95596 -0.26131,-0.26131 8.72059,-67.60419 9.06234,-67.94594 0.12871,-0.1287 5.07922,1.25385 11.00115,3.07234 53.4262,16.40594 90.93231,24.59776 129.96515,28.38605 11.44826,1.11109 42.26797,1.55447 53.5972,0.77105 37.79351,-2.61343 72.72172,-11.36691 106.69736,-26.73979 l 6.58612,-2.98001 0.54823,2.59243 c 0.30153,1.42583 3.5722,16.22948 7.26815,32.897 5.87956,26.51482 6.61926,30.35081 5.91501,30.67433 -1.13682,0.52222 -22.61539,5.82275 -38.18056,9.42229 -61.4449,14.20947 -102.40888,19.15196 -142.43151,17.185 z"
         style="fill:#000000;fill-opacity:1;stroke:#000000;stroke-width:1.01015258;stroke-miterlimit:4;stroke-dasharray:none;stroke-opacity:1" />
    </g>
  </g>
</svg>
